<?xml version="1.0" encoding="UTF-8"?>
<svg width="48px" height="48px" viewBox="0 0 48 48" version="1.1" xmlns="http://www.w3.org/2000/svg" xmlns:xlink="http://www.w3.org/1999/xlink">
    <title>analytic-reporting-icon</title>
    <g id="Images" stroke="none" stroke-width="1" fill="none" fill-rule="evenodd">
        <g id="Icons" transform="translate(-301.000000, -551.000000)">
            <g id="Group-9" transform="translate(302.000000, 552.000000)">
                <rect id="Rectangle" fill="#607D8B" opacity="0.100000001" x="0" y="0" width="46" height="46" rx="5.725"></rect>
                <g id="financial" opacity="0.800000012" transform="translate(15.000000, 12.000000)" fill="#455A64" fill-rule="nonzero">
                    <path d="M11.3333333,1.375 L9.88533333,1.375 C9.61066667,0.57475 8.86933333,0 8,0 C7.13066667,0 6.38933333,0.57475 6.11333333,1.375 L4.66666667,1.375 C4.29866667,1.375 4,1.683 4,2.0625 L4,3.4375 C4,3.817 4.29866667,4.125 4.66666667,4.125 L11.3333333,4.125 C11.7013333,4.125 12,3.817 12,3.4375 L12,2.0625 C12,1.683 11.7013333,1.375 11.3333333,1.375 Z" id="Path"></path>
                    <path d="M14.6666667,2.75 L13.3333333,2.75 L13.3333333,3.4375 C13.3333333,4.574625 12.436,5.5 11.3333333,5.5 L4.66666667,5.5 C3.564,5.5 2.66666667,4.574625 2.66666667,3.4375 L2.66666667,2.75 L1.33333333,2.75 C0.598666667,2.75 0,3.367375 0,4.125 L0,20.625 C0,21.396375 0.585333333,22 1.33333333,22 L14.6666667,22 C15.4146667,22 16,21.396375 16,20.625 L16,4.125 C16,3.353625 15.4146667,2.75 14.6666667,2.75 Z M8.66666667,6.945125 C9.97066667,7.21875 11,8.28025 11.2653333,9.625 L8.66666667,9.625 L8.66666667,6.945125 Z M7.33333333,6.945125 L7.33333333,10.3125 C7.33333333,10.692 7.632,11 8,11 L11.2653333,11 C10.956,12.5675 9.61066667,13.75 8,13.75 C6.16266667,13.75 4.66666667,12.20725 4.66666667,10.3125 C4.66666667,8.652875 5.81333333,7.264125 7.33333333,6.945125 Z M8.66666667,19.25 L3.33333333,19.25 C2.96533333,19.25 2.66666667,18.942 2.66666667,18.5625 C2.66666667,18.183 2.96533333,17.875 3.33333333,17.875 L8.66666667,17.875 C9.03466667,17.875 9.33333333,18.183 9.33333333,18.5625 C9.33333333,18.942 9.03466667,19.25 8.66666667,19.25 Z M12.6666667,16.5 L3.33333333,16.5 C2.96533333,16.5 2.66666667,16.192 2.66666667,15.8125 C2.66666667,15.433 2.96533333,15.125 3.33333333,15.125 L12.6666667,15.125 C13.0346667,15.125 13.3333333,15.433 13.3333333,15.8125 C13.3333333,16.192 13.0346667,16.5 12.6666667,16.5 Z" id="Shape"></path>
                </g>
            </g>
        </g>
    </g>
</svg>