<?xml version="1.0" encoding="UTF-8"?>
<svg width="48px" height="48px" viewBox="0 0 48 48" version="1.1" xmlns="http://www.w3.org/2000/svg" xmlns:xlink="http://www.w3.org/1999/xlink">
    <title>easy-scheduling-icon</title>
    <g id="Images" stroke="none" stroke-width="1" fill="none" fill-rule="evenodd">
        <g id="Icons" transform="translate(-91.000000, -551.000000)">
            <g id="Group-6" transform="translate(92.000000, 552.000000)">
                <rect id="Rectangle" fill="#607D8B" opacity="0.100000001" x="0" y="0" width="46" height="46" rx="5.725"></rect>
                <g id="calendar_1" opacity="0.800000012" transform="translate(11.000000, 11.000000)" fill="#455A64" fill-rule="nonzero">
                    <rect id="Rectangle" x="6" y="10.8" width="2.4" height="2.4"></rect>
                    <rect id="Rectangle" x="10.8" y="10.8" width="2.4" height="2.4"></rect>
                    <rect id="Rectangle" x="15.6" y="10.8" width="2.4" height="2.4"></rect>
                    <rect id="Rectangle" x="6" y="15.6" width="2.4" height="2.4"></rect>
                    <rect id="Rectangle" x="10.8" y="15.6" width="2.4" height="2.4"></rect>
                    <rect id="Rectangle" x="15.6" y="15.6" width="2.4" height="2.4"></rect>
                    <path d="M22.8,2.4 L20.4,2.4 L20.4,1.2 C20.4,0.48 19.92,0 19.2,0 C18.48,0 18,0.48 18,1.2 L18,2.4 L6,2.4 L6,1.2 C6,0.48 5.52,0 4.8,0 C4.08,0 3.6,0.48 3.6,1.2 L3.6,2.4 L1.2,2.4 C0.48,2.4 0,2.88 0,3.6 L0,22.8 C0,23.52 0.48,24 1.2,24 L22.8,24 C23.4,24 24,23.52 24,22.8 L24,3.6 C24,2.88 23.4,2.4 22.8,2.4 Z M21.6,21.6 L2.4,21.6 L2.4,7.2 L21.6,7.2 L21.6,21.6 Z" id="Shape"></path>
                </g>
            </g>
        </g>
    </g>
</svg>