<?xml version="1.0" encoding="UTF-8"?>
<svg width="48px" height="48px" viewBox="0 0 48 48" version="1.1" xmlns="http://www.w3.org/2000/svg" xmlns:xlink="http://www.w3.org/1999/xlink">
    <title>instant-chat-icon</title>
    <g id="Images" stroke="none" stroke-width="1" fill="none" fill-rule="evenodd">
        <g id="Icons" transform="translate(-231.000000, -551.000000)">
            <g id="Group-8" transform="translate(232.000000, 552.000000)">
                <rect id="Rectangle" fill="#607D8B" opacity="0.100000001" x="0" y="0" width="46" height="46" rx="5.725"></rect>
                <g id="chatting" opacity="0.800000012" transform="translate(10.000000, 11.000000)" fill="#455A64" fill-rule="nonzero">
                    <path d="M17.9780859,0 C18.3985547,0 18.7398047,0.344418589 18.7398047,0.768791494 L18.7398047,0.768791494 L18.7398047,10.5237305 C18.7398047,12.1602313 17.4210156,13.4912657 15.7995703,13.4912657 L15.7995703,13.4912657 L6.58835937,13.4912657 C6.15671875,13.4912657 5.74335937,13.6250354 5.39195312,13.8777115 L5.39195312,13.8777115 L1.20402344,16.8934243 C0.705808594,17.2526037 0,16.8975245 0,16.267628 L0,16.267628 L0,2.96753517 C0,1.33103434 1.31878906,0 2.94023437,0 L2.94023437,0 Z M14.2781641,7.77555717 L5.47726562,7.77555717 C5.05679687,7.77555717 4.71554687,8.11997576 4.71554687,8.54434866 C4.71554687,8.96923409 5.05679687,9.31314016 5.47726562,9.31314016 L5.47726562,9.31314016 L14.2781641,9.31314016 C14.6986328,9.31314016 15.0398828,8.96923409 15.0398828,8.54434866 C15.0398828,8.11997576 14.6986328,7.77555717 14.2781641,7.77555717 L14.2781641,7.77555717 Z M14.2781641,4.18786353 L5.47726562,4.18786353 C5.05679687,4.18786353 4.71554687,4.53228212 4.71554687,4.95665502 C4.71554687,5.38154046 5.05679687,5.72544652 5.47726562,5.72544652 L5.47726562,5.72544652 L14.2781641,5.72544652 C14.6986328,5.72544652 15.0398828,5.38154046 15.0398828,4.95665502 C15.0398828,4.53228212 14.6986328,4.18786353 14.2781641,4.18786353 L14.2781641,4.18786353 Z" id="Shape"></path>
                    <path d="M26,8.93079452 L26,22.2303748 C26,22.8560174 25.2977461,23.2179131 24.7959766,22.8561711 L20.6080469,19.8409709 C20.2566406,19.5882947 19.8432812,19.454525 19.4116406,19.454525 L10.2004297,19.454525 C8.57898437,19.454525 7.26019531,18.1229781 7.26019531,16.4864773 L7.26019531,15.0288486 L15.7995703,15.0288486 C18.2609375,15.0288486 20.2632422,13.0079521 20.2632422,10.5237305 L20.2632422,5.96274683 L23.0597656,5.96274683 C24.6812109,5.96274683 26,7.29429369 26,8.93079452 L26,8.93079452 Z" id="Path"></path>
                </g>
            </g>
        </g>
    </g>
</svg>