<?xml version="1.0" encoding="UTF-8"?>
<svg width="48px" height="48px" viewBox="0 0 48 48" version="1.1" xmlns="http://www.w3.org/2000/svg" xmlns:xlink="http://www.w3.org/1999/xlink">
    <title>lead-management-dashboard-icon</title>
    <g id="Images" stroke="none" stroke-width="1" fill="none" fill-rule="evenodd">
        <g id="Icons" transform="translate(-161.000000, -551.000000)">
            <g id="Group-7" transform="translate(162.000000, 552.000000)">
                <rect id="Rectangle" fill="#607D8B" opacity="0.100000001" x="0" y="0" width="46" height="46" rx="5.725"></rect>
                <g id="Group" opacity="0.800000012" transform="translate(6.000000, 13.000000)" fill="#455A64" fill-rule="nonzero">
                    <polygon id="Path" points="34 7.59467649 29.8666946 6.70671703 30.9356529 8.57572848 14.5520855 18.1356146 8.14546217 15.2783902 0 19.7468314 0.684133305 21 8.20959966 16.8752851 14.6376022 19.7468314 31.6411654 9.81457515 32.6887445 11.6334599"></polygon>
                    <path d="M10.3403899,13.0799745 C10.3409769,12.7463565 10.3695839,12.4133835 10.4259065,12.0846006 C10.7741328,12.8460121 10.9540444,13.6742006 10.9532593,14.5121671 L10.9532593,14.5121671 C10.9540444,13.6742006 10.7741328,12.8460121 10.4259065,12.0846006 C10.3695502,12.4133791 10.3409429,12.746355 10.3403899,13.0799745 L10.3403899,13.0799745 Z" id="Path"></path>
                    <path d="M10.4259065,12.0846006 C9.90709459,10.9238577 8.98841115,9.9905448 7.83902746,9.45652698 C9.15687822,8.58897791 9.75130968,6.95475431 9.30082067,5.43773399 C8.85033167,3.92071367 7.46187206,2.88104991 5.88639698,2.88104991 C4.31092191,2.88104991 2.92246229,3.92071367 2.47197329,5.43773399 C2.02148429,6.95475431 2.61591574,8.58897791 3.93376651,9.45652698 C2.00323644,10.3861108 0.789275488,12.3613736 0.826661077,14.5121671 L0.826661077,17.5555766 L8.17396772,13.3162863 L10.5613079,14.3904308 L10.5613079,14.3904308 L14.4808216,16.0732572 L19.8184867,13.0370087 L20.2603228,12.7434092 L28.6480822,7.97420755 C28.1556722,7.37617358 27.5342242,6.898643 26.8308531,6.57781969 C28.1503941,5.71142074 28.7466293,4.07678352 28.2968176,2.55873432 C27.847006,1.04068512 26.4580486,0 24.8817858,0 C23.3055229,0 21.9165656,1.04068512 21.4667539,2.55873432 C21.0169423,4.07678352 21.6131775,5.71142074 22.9327185,6.57781969 C21.3164887,7.37012149 20.1994166,8.91958981 19.9538881,10.7096956 C19.5139807,9.49564515 18.5965668,8.5168111 17.4168937,8.00285141 C18.7262615,7.12957999 19.3116726,5.49745451 18.8578046,3.98559367 C18.4039366,2.47373283 17.0179754,1.43917947 15.4464473,1.43917947 C13.8749192,1.43917947 12.488958,2.47373283 12.03509,3.98559367 C11.5812219,5.49745451 12.1666331,7.12957999 13.4760008,8.00285141 C11.8622019,8.77043366 10.7308878,10.2906394 10.4544121,12.0631177" id="Path"></path>
                </g>
            </g>
        </g>
    </g>
</svg>