<?xml version="1.0" encoding="UTF-8"?>
<svg width="22px" height="30px" viewBox="0 0 22 30" version="1.1" xmlns="http://www.w3.org/2000/svg" xmlns:xlink="http://www.w3.org/1999/xlink">
    <title>scroll-down-icon</title>
    <g id="Images" stroke="none" stroke-width="1" fill="none" fill-rule="evenodd" opacity="0.800000012">
        <g id="Icons" transform="translate(-452.000000, -366.000000)" fill="#455A64" fill-rule="nonzero">
            <g id="Group" transform="translate(457.000000, 367.500000)">
                <path d="M6,0 C2.68867925,0 0,2.68867925 0,6 L0,11.7169811 C0,15.0283019 2.68867925,17.7169811 6,17.7169811 C9.31132075,17.7169811 12,15.0283019 12,11.7169811 L12,6 C12,2.68867925 9.31132075,0 6,0 Z M10.3018868,11.7169811 C10.3018868,14.0943396 8.37735849,16.0188679 6,16.0188679 C3.62264151,16.0188679 1.69811321,14.0943396 1.69811321,11.7169811 L1.69811321,6 C1.69811321,3.62264151 3.62264151,1.69811321 6,1.69811321 C8.37735849,1.69811321 10.3018868,3.62264151 10.3018868,6 L10.3018868,11.7169811 Z" id="Shape"></path>
                <path d="M6,3.56603774 C5.51886792,3.56603774 5.1509434,3.93396226 5.1509434,4.41509434 L5.1509434,6.70754717 C5.1509434,7.18867925 5.51886792,7.55660377 6,7.55660377 C6.48113208,7.55660377 6.8490566,7.18867925 6.8490566,6.70754717 L6.8490566,4.41509434 C6.8490566,3.96226415 6.48113208,3.56603774 6,3.56603774 Z" id="Path"></path>
                <path d="M7.75471698,18.990566 L6,20.7735849 L4.24528302,19.0188679 C3.90566038,18.6792453 3.36792453,18.6792453 3.02830189,19.0188679 C2.68867925,19.3584906 2.68867925,19.8962264 3.02830189,20.2358491 L5.40566038,22.6132075 C5.5754717,22.7830189 5.80188679,22.8679245 6,22.8679245 C6.19811321,22.8679245 6.4245283,22.7830189 6.59433962,22.6132075 L8.97169811,20.2358491 C9.31132075,19.8962264 9.31132075,19.3584906 8.97169811,19.0188679 C8.63207547,18.6792453 8.09433962,18.6792453 7.75471698,18.990566 Z" id="Path"></path>
                <path d="M7.75471698,23.0660377 L6,24.8207547 L4.24528302,23.0660377 C3.90566038,22.7264151 3.36792453,22.7264151 3.02830189,23.0660377 C2.68867925,23.4056604 2.68867925,23.9433962 3.02830189,24.2830189 L5.40566038,26.6603774 C5.5754717,26.8301887 5.80188679,26.9150943 6,26.9150943 C6.19811321,26.9150943 6.4245283,26.8301887 6.59433962,26.6603774 L8.97169811,24.2830189 C9.31132075,23.9433962 9.31132075,23.4056604 8.97169811,23.0660377 C8.63207547,22.7264151 8.09433962,22.7264151 7.75471698,23.0660377 Z" id="Path"></path>
            </g>
        </g>
    </g>
</svg>