<?xml version="1.0" encoding="UTF-8"?>
<svg width="48px" height="48px" viewBox="0 0 48 48" version="1.1" xmlns="http://www.w3.org/2000/svg" xmlns:xlink="http://www.w3.org/1999/xlink">
    <title>social-media-marketing-kit-icon</title>
    <g id="Images" stroke="none" stroke-width="1" fill="none" fill-rule="evenodd">
        <g id="Icons" transform="translate(-21.000000, -551.000000)">
            <g id="Group-5" transform="translate(22.000000, 552.000000)">
                <rect id="Rectangle" fill="#607D8B" opacity="0.100000001" x="0" y="0" width="46" height="46" rx="5.725"></rect>
                <g id="Group" opacity="0.800000012" transform="translate(7.000000, 7.000000)" fill="#455A64" fill-rule="nonzero">
                    <path d="M8.25404961,32 C10.4593815,32 12.5327798,31.1414312 14.0926576,29.5817222 C14.6593889,29.0146878 15.1211565,28.3827869 15.4885296,27.7122578 C15.793216,27.7355806 16.1000891,27.749064 16.4080556,27.749064 C19.6703141,27.749064 22.7368589,26.4790673 25.0438744,24.1723014 C27.3508899,21.8658999 28.6213885,18.7993224 28.6213885,15.5374169 C28.6213885,14.8872952 28.5674488,14.2455551 28.4675875,13.6154764 C28.9581472,13.317018 29.4242882,12.9631682 29.8485167,12.53935 C32.7171611,9.67065154 32.7171611,5.01994904 29.8485167,2.15125055 C26.9791434,-0.717083517 22.3279377,-0.717083517 19.4592932,2.15125055 C19.046363,2.56377173 18.7004929,3.01637888 18.4063757,3.49194437 C17.7514457,3.38444106 17.0844886,3.32540534 16.4076912,3.32540534 C13.1454328,3.32540534 10.078159,4.59576649 7.77187243,6.902168 C5.13939642,9.53435921 3.97058145,13.0775954 4.24902693,16.5257185 C3.58498549,16.8952384 2.96613678,17.3540406 2.41471269,17.9057695 C-0.80490423,21.1246737 -0.80490423,26.362818 2.41471269,29.5820866 C3.97459048,31.1410668 6.04798879,32 8.25404961,32 Z M23.4216744,8.71368987 C22.5360428,8.26399806 21.9281279,7.34457145 21.9281279,6.28302182 C21.9281279,4.77797549 23.1490602,3.55753961 24.653905,3.55753961 C26.1594786,3.55753961 27.3796821,4.77797549 27.3796821,6.28302182 C27.3796821,7.34457145 26.772496,8.26399806 25.8861355,8.71368987 C27.1026944,9.08284531 28.0728801,9.98295776 28.5029399,11.1323321 L20.8052345,11.1323321 C21.2342009,9.98295776 22.2051155,9.08284531 23.4216744,8.71368987 Z M9.04054874,8.17070706 C11.0086188,6.20321428 13.6246943,5.11943515 16.4080556,5.11943515 C16.8209859,5.11943515 17.2280849,5.1467665 17.6315392,5.19414084 C16.8643563,7.70753178 17.4715424,10.550721 19.4596577,12.5386212 C21.4364748,14.51486 24.2581042,15.1289043 26.7608334,14.3825763 C26.802746,14.7637575 26.8271646,15.1489473 26.8271646,15.5374169 C26.8271646,18.3201127 25.7429038,20.9359051 23.7755626,22.9041267 C21.8074924,24.8712551 19.191417,25.9553987 16.4080556,25.9553987 C16.3395377,25.9553987 16.2713841,25.9506612 16.2028661,25.9492035 C16.9667689,23.176347 16.2670106,20.0806161 14.0922931,17.9057695 C12.5327798,16.3464249 10.459017,15.4874916 8.25332069,15.4874916 C7.4810354,15.4874916 6.72697298,15.5990035 6.00388944,15.8023488 C5.93354916,13.0466199 6.94200286,10.2690259 9.04054874,8.17070706 Z M3.70343416,19.1939871 C4.91853522,17.9790175 6.53453946,17.3095816 8.25332069,17.3095816 C9.97210192,17.3095816 11.5881062,17.9790175 12.8039361,19.1939871 C15.3124966,21.703005 15.3124966,25.784851 12.8039361,28.293869 C11.5881062,29.5088386 9.97210192,30.1782744 8.25404961,30.1782744 C6.53490392,30.1782744 4.91926414,29.5088386 3.70343416,28.2935045 C1.19487368,25.784851 1.19487368,21.7022762 3.70343416,19.1939871 Z" id="Shape"></path>
                    <path d="M9.48555126,25.1124998 C10.3719117,24.662808 10.9790978,23.7433814 10.9790978,22.6818318 C10.9790978,21.1767854 9.75889433,19.9563496 8.25332069,19.9563496 C6.74847597,19.9563496 5.52754359,21.1767854 5.52754359,22.6818318 C5.52754359,23.7433814 6.13545858,24.662808 7.02109013,25.1124998 C5.80453123,25.4816553 4.83361664,26.3817677 4.40428579,27.5311421 L12.1019911,27.5311421 C11.6722958,26.3817677 10.7021102,25.4816553 9.48555126,25.1124998 Z" id="Path"></path>
                </g>
            </g>
        </g>
    </g>
</svg>